<svg width="18" height="18" viewBox="0 0 18 18" fill="none" xmlns="http://www.w3.org/2000/svg">
<path d="M9.23045 17.5117L10.0039 16.7383C10.1869 16.5552 10.1869 16.2584 10.0039 16.0754L3.94408 10.0156H17.2812C17.5401 10.0156 17.75 9.80575 17.75 9.54688V8.45313C17.75 8.19427 17.5401 7.98438 17.2812 7.98438H3.94408L10.0039 1.92462C10.1869 1.74157 10.1869 1.44477 10.0039 1.26169L9.23045 0.48833C9.04741 0.305283 8.75061 0.305283 8.56752 0.48833L0.387285 8.66856C0.204238 8.85161 0.204238 9.14841 0.387285 9.33149L8.56752 17.5117C8.75057 17.6948 9.04737 17.6948 9.23045 17.5117Z" fill="white"/>
</svg>
