<svg width="206" height="164" viewBox="0 0 206 164" fill="none" xmlns="http://www.w3.org/2000/svg">
<g opacity="0.1">
<path d="M127.762 60C127.762 73.6756 116.676 84.7619 103 84.7619C89.3244 84.7619 78.2381 73.6756 78.2381 60C78.2381 46.3244 89.3244 35.2381 103 35.2381C116.676 35.2381 127.762 46.3244 127.762 60Z" fill="black"/>
<path fill-rule="evenodd" clip-rule="evenodd" d="M103 164C155.393 164 198.738 125.257 205.947 74.8571H145.035C138.917 92.1686 122.407 104.571 103 104.571C83.5933 104.571 67.0835 92.1686 60.9648 74.8571H0.0532056C7.26233 125.257 50.6067 164 103 164ZM60.9648 45.1429H0.0532056C7.26233 -5.25694 50.6067 -44 103 -44C155.393 -44 198.738 -5.25694 205.947 45.1429H145.035C138.917 27.8314 122.407 15.4286 103 15.4286C83.5933 15.4286 67.0835 27.8314 60.9648 45.1429ZM127.762 60C127.762 73.6756 116.676 84.7619 103 84.7619C89.3244 84.7619 78.2381 73.6756 78.2381 60C78.2381 46.3244 89.3244 35.2381 103 35.2381C116.676 35.2381 127.762 46.3244 127.762 60Z" fill="black"/>
</g>
</svg>
