<svg width="104" height="22" viewBox="0 0 104 22" fill="none" xmlns="http://www.w3.org/2000/svg">
<path d="M4.592 11.688V7.464H6.824C8.456 7.464 9.152 8.28 9.152 9.576C9.152 10.872 8.456 11.688 6.824 11.688H4.592ZM13.328 9.576C13.328 6.48 11.264 4.152 7.136 4.152H0.488V21H4.592V14.952H7.136C11.432 14.952 13.328 12.36 13.328 9.576ZM28.5686 14.304C28.5686 10.056 25.5446 7.416 21.6086 7.416C17.6966 7.416 14.6486 10.056 14.6486 14.304C14.6486 18.552 17.6246 21.192 21.5606 21.192C25.4966 21.192 28.5686 18.552 28.5686 14.304ZM18.8246 14.304C18.8246 12.024 20.1206 10.968 21.6086 10.968C23.0486 10.968 24.3926 12.024 24.3926 14.304C24.3926 16.56 23.0246 17.64 21.5606 17.64C20.0726 17.64 18.8246 16.56 18.8246 14.304ZM30.7458 21H34.8498V15.384L38.9298 21H44.0178L38.4018 14.328L43.9698 7.608H38.9058L34.8498 13.056V3.24H30.7458V21ZM51.4858 10.704C52.8538 10.704 54.0058 11.544 54.0058 13.008H48.8698C49.1098 11.52 50.1418 10.704 51.4858 10.704ZM57.8938 16.56H53.5258C53.1898 17.28 52.5418 17.856 51.3898 17.856C50.0698 17.856 48.9898 17.04 48.8458 15.288H58.1338C58.1818 14.88 58.2057 14.472 58.2057 14.088C58.2057 10.008 55.4458 7.416 51.5338 7.416C47.5498 7.416 44.7658 10.056 44.7658 14.304C44.7658 18.552 47.5978 21.192 51.5338 21.192C54.8698 21.192 57.2458 19.176 57.8938 16.56ZM48.5098 3.768V6.6L54.2938 4.176V0.983999L48.5098 3.768ZM59.5548 14.28C59.5548 18.504 62.1708 21.192 65.4588 21.192C67.4268 21.192 68.8428 20.304 69.5868 19.08V21H73.6908V3.24H69.5868V9.456C68.7708 8.232 67.2348 7.416 65.4588 7.416C62.1708 7.416 59.5548 10.056 59.5548 14.28ZM69.5868 14.304C69.5868 16.44 68.2188 17.616 66.6588 17.616C65.1228 17.616 63.7308 16.416 63.7308 14.28C63.7308 12.144 65.1228 10.992 66.6588 10.992C68.2188 10.992 69.5868 12.168 69.5868 14.304ZM82.5639 10.704C83.9319 10.704 85.0839 11.544 85.0839 13.008H79.9479C80.1879 11.52 81.2199 10.704 82.5639 10.704ZM88.9719 16.56H84.6039C84.2679 17.28 83.6199 17.856 82.4679 17.856C81.1479 17.856 80.0679 17.04 79.9239 15.288H89.2119C89.2599 14.88 89.2839 14.472 89.2839 14.088C89.2839 10.008 86.5239 7.416 82.6119 7.416C78.6279 7.416 75.8439 10.056 75.8439 14.304C75.8439 18.552 78.6759 21.192 82.6119 21.192C85.9479 21.192 88.3239 19.176 88.9719 16.56ZM99.3689 21H103.977L99.3689 14.352L103.857 7.608H99.4169L97.2569 11.304L94.6889 7.608H90.0809L94.6169 14.16L90.2009 21H94.6409L96.8009 17.28L99.3689 21Z" fill="#212121"/>
</svg>
